# xmcd CD database file
#
# Track frame offsets:
#	150
#	5517
#	40021
#	70956
#	99574
#	113766
#	143839
#	160968
#	197210
#	210968
#	243518
#	282607
#	305821
#	319008
#
# Disc length: 4747 seconds
#
# Revision: 0
# Processed by: cddbd v1.5.2PL0 Copyright (c) Steve Scherf et al.
# Submitted via: CDex 1.51
#
DISCID=ca12890e
DTITLE=Lars Niedereichholz - Unknorke CD-2
DYEAR=2008
DGENRE=Hörbuch
TTITLE0=Riesenstress -1
TTITLE1=Riesenstress -2
TTITLE2=Ausflug nach Freiburg
TTITLE3=Taten statt Worte
TTITLE4=Sex
TTITLE5=Alles nix
TTITLE6=Liebeskummer
TTITLE7=Freiwilliger Pflichttermin
TTITLE8=Aussteiger
TTITLE9=Betriebsversammlung
TTITLE10=Angriff der Ökozombies
TTITLE11=The day after
TTITLE12=Selbst in der kleinsten Hütte
TTITLE13=Jacquelines Hochzeit
EXTD=YEAR: 2008
EXTT0=
EXTT1=
EXTT2=
EXTT3=
EXTT4=
EXTT5=
EXTT6=
EXTT7=
EXTT8=
EXTT9=
EXTT10=
EXTT11=
EXTT12=
EXTT13=
PLAYORDER=
